<svg id="visual" viewBox="0 0 960 540" width="960" height="540" xmlns="http://www.w3.org/2000/svg" xmlns:xlink="http://www.w3.org/1999/xlink" version="1.1"><rect x="0" y="0" width="960" height="540" fill="#001220"></rect><defs><linearGradient id="grad1_0" x1="43.8%" y1="0%" x2="100%" y2="100%"><stop offset="14.444444444444446%" stop-color="#fbae3c" stop-opacity="1"></stop><stop offset="85.55555555555554%" stop-color="#fbae3c" stop-opacity="1"></stop></linearGradient></defs><defs><linearGradient id="grad1_1" x1="43.8%" y1="0%" x2="100%" y2="100%"><stop offset="14.444444444444446%" stop-color="#fbae3c" stop-opacity="1"></stop><stop offset="85.55555555555554%" stop-color="#96446e" stop-opacity="1"></stop></linearGradient></defs><defs><linearGradient id="grad1_2" x1="43.8%" y1="0%" x2="100%" y2="100%"><stop offset="14.444444444444446%" stop-color="#001220" stop-opacity="1"></stop><stop offset="85.55555555555554%" stop-color="#96446e" stop-opacity="1"></stop></linearGradient></defs><defs><linearGradient id="grad2_0" x1="0%" y1="0%" x2="56.3%" y2="100%"><stop offset="14.444444444444446%" stop-color="#fbae3c" stop-opacity="1"></stop><stop offset="85.55555555555554%" stop-color="#fbae3c" stop-opacity="1"></stop></linearGradient></defs><defs><linearGradient id="grad2_1" x1="0%" y1="0%" x2="56.3%" y2="100%"><stop offset="14.444444444444446%" stop-color="#96446e" stop-opacity="1"></stop><stop offset="85.55555555555554%" stop-color="#fbae3c" stop-opacity="1"></stop></linearGradient></defs><defs><linearGradient id="grad2_2" x1="0%" y1="0%" x2="56.3%" y2="100%"><stop offset="14.444444444444446%" stop-color="#96446e" stop-opacity="1"></stop><stop offset="85.55555555555554%" stop-color="#001220" stop-opacity="1"></stop></linearGradient></defs><g transform="translate(960, 0)"><path d="M0 324C-22.9 299.8 -45.7 275.5 -72.5 270.5C-99.2 265.4 -129.8 279.5 -160.5 278C-191.2 276.4 -222.1 259.2 -229.1 229.1C-236.1 199 -219.3 156 -224.3 129.5C-229.3 103 -256 92.9 -276.3 74C-296.5 55.2 -310.2 27.6 -324 0L0 0Z" fill="#3d3056"></path><path d="M0 216C-15.2 199.8 -30.5 183.7 -48.3 180.3C-66.1 176.9 -86.5 186.4 -107 185.3C-127.5 184.3 -148 172.8 -152.7 152.7C-157.4 132.7 -146.2 104 -149.5 86.3C-152.8 68.6 -170.7 61.9 -184.2 49.3C-197.7 36.8 -206.8 18.4 -216 0L0 0Z" fill="#e1685e"></path><path d="M0 108C-7.6 99.9 -15.2 91.8 -24.2 90.2C-33.1 88.5 -43.3 93.2 -53.5 92.7C-63.7 92.1 -74 86.4 -76.4 76.4C-78.7 66.3 -73.1 52 -74.8 43.2C-76.4 34.3 -85.3 31 -92.1 24.7C-98.8 18.4 -103.4 9.2 -108 0L0 0Z" fill="#fbae3c"></path></g><g transform="translate(0, 540)"><path d="M0 -324C28 -322.2 56 -320.5 83.9 -313C111.7 -305.5 139.5 -292.3 154.5 -267.6C169.5 -242.9 171.7 -206.8 184.6 -184.6C197.5 -162.3 221.1 -153.9 239.9 -138.5C258.7 -123.1 272.7 -100.8 285.9 -76.6C299.1 -52.4 311.6 -26.2 324 0L0 0Z" fill="#3d3056"></path><path d="M0 -216C18.7 -214.8 37.3 -213.6 55.9 -208.6C74.5 -203.6 93 -194.8 103 -178.4C113 -162 114.4 -137.9 123 -123C131.6 -108.2 147.4 -102.6 159.9 -92.3C172.5 -82.1 181.8 -67.2 190.6 -51.1C199.4 -34.9 207.7 -17.5 216 0L0 0Z" fill="#e1685e"></path><path d="M0 -108C9.3 -107.4 18.7 -106.8 28 -104.3C37.2 -101.8 46.5 -97.4 51.5 -89.2C56.5 -81 57.2 -68.9 61.5 -61.5C65.8 -54.1 73.7 -51.3 80 -46.2C86.2 -41 90.9 -33.6 95.3 -25.5C99.7 -17.5 103.9 -8.7 108 0L0 0Z" fill="#fbae3c"></path></g></svg>