<svg id="visual" viewBox="0 0 900 600" width="900" height="600" xmlns="http://www.w3.org/2000/svg" xmlns:xlink="http://www.w3.org/1999/xlink" version="1.1"><rect x="0" y="0" width="900" height="600" fill="#a2adb8"></rect><path d="M0 134L16.7 140C33.3 146 66.7 158 100 163.3C133.3 168.7 166.7 167.3 200 170.5C233.3 173.7 266.7 181.3 300 187.2C333.3 193 366.7 197 400 188.2C433.3 179.3 466.7 157.7 500 159C533.3 160.3 566.7 184.7 600 200.5C633.3 216.3 666.7 223.7 700 218.5C733.3 213.3 766.7 195.7 800 182C833.3 168.3 866.7 158.7 883.3 153.8L900 149L900 0L883.3 0C866.7 0 833.3 0 800 0C766.7 0 733.3 0 700 0C666.7 0 633.3 0 600 0C566.7 0 533.3 0 500 0C466.7 0 433.3 0 400 0C366.7 0 333.3 0 300 0C266.7 0 233.3 0 200 0C166.7 0 133.3 0 100 0C66.7 0 33.3 0 16.7 0L0 0Z" fill="#0e0313"></path><path d="M0 206L16.7 194.5C33.3 183 66.7 160 100 151.7C133.3 143.3 166.7 149.7 200 150.8C233.3 152 266.7 148 300 146.8C333.3 145.7 366.7 147.3 400 156.8C433.3 166.3 466.7 183.7 500 193.8C533.3 204 566.7 207 600 199.7C633.3 192.3 666.7 174.7 700 158.3C733.3 142 766.7 127 800 133.5C833.3 140 866.7 168 883.3 182L900 196L900 0L883.3 0C866.7 0 833.3 0 800 0C766.7 0 733.3 0 700 0C666.7 0 633.3 0 600 0C566.7 0 533.3 0 500 0C466.7 0 433.3 0 400 0C366.7 0 333.3 0 300 0C266.7 0 233.3 0 200 0C166.7 0 133.3 0 100 0C66.7 0 33.3 0 16.7 0L0 0Z" fill="#17081a"></path><path d="M0 185L16.7 170.8C33.3 156.7 66.7 128.3 100 125C133.3 121.7 166.7 143.3 200 144.7C233.3 146 266.7 127 300 126.3C333.3 125.7 366.7 143.3 400 142.7C433.3 142 466.7 123 500 114.3C533.3 105.7 566.7 107.3 600 113.2C633.3 119 666.7 129 700 137.5C733.3 146 766.7 153 800 158.3C833.3 163.7 866.7 167.3 883.3 169.2L900 171L900 0L883.3 0C866.7 0 833.3 0 800 0C766.7 0 733.3 0 700 0C666.7 0 633.3 0 600 0C566.7 0 533.3 0 500 0C466.7 0 433.3 0 400 0C366.7 0 333.3 0 300 0C266.7 0 233.3 0 200 0C166.7 0 133.3 0 100 0C66.7 0 33.3 0 16.7 0L0 0Z" fill="#1e0c20"></path><path d="M0 138L16.7 132.8C33.3 127.7 66.7 117.3 100 112.2C133.3 107 166.7 107 200 107.7C233.3 108.3 266.7 109.7 300 114.2C333.3 118.7 366.7 126.3 400 121.7C433.3 117 466.7 100 500 96.7C533.3 93.3 566.7 103.7 600 106.8C633.3 110 666.7 106 700 104.8C733.3 103.7 766.7 105.3 800 105C833.3 104.7 866.7 102.3 883.3 101.2L900 100L900 0L883.3 0C866.7 0 833.3 0 800 0C766.7 0 733.3 0 700 0C666.7 0 633.3 0 600 0C566.7 0 533.3 0 500 0C466.7 0 433.3 0 400 0C366.7 0 333.3 0 300 0C266.7 0 233.3 0 200 0C166.7 0 133.3 0 100 0C66.7 0 33.3 0 16.7 0L0 0Z" fill="#250f26"></path><path d="M0 112L16.7 110.5C33.3 109 66.7 106 100 102.5C133.3 99 166.7 95 200 99C233.3 103 266.7 115 300 117C333.3 119 366.7 111 400 105C433.3 99 466.7 95 500 89.3C533.3 83.7 566.7 76.3 600 83.3C633.3 90.3 666.7 111.7 700 111.8C733.3 112 766.7 91 800 84.8C833.3 78.7 866.7 87.3 883.3 91.7L900 96L900 0L883.3 0C866.7 0 833.3 0 800 0C766.7 0 733.3 0 700 0C666.7 0 633.3 0 600 0C566.7 0 533.3 0 500 0C466.7 0 433.3 0 400 0C366.7 0 333.3 0 300 0C266.7 0 233.3 0 200 0C166.7 0 133.3 0 100 0C66.7 0 33.3 0 16.7 0L0 0Z" fill="#2e0f2c"></path><path d="M0 98L16.7 97.2C33.3 96.3 66.7 94.7 100 97C133.3 99.3 166.7 105.7 200 109.8C233.3 114 266.7 116 300 113.3C333.3 110.7 366.7 103.3 400 103.2C433.3 103 466.7 110 500 109.5C533.3 109 566.7 101 600 95.5C633.3 90 666.7 87 700 82.7C733.3 78.3 766.7 72.7 800 77.3C833.3 82 866.7 97 883.3 104.5L900 112L900 0L883.3 0C866.7 0 833.3 0 800 0C766.7 0 733.3 0 700 0C666.7 0 633.3 0 600 0C566.7 0 533.3 0 500 0C466.7 0 433.3 0 400 0C366.7 0 333.3 0 300 0C266.7 0 233.3 0 200 0C166.7 0 133.3 0 100 0C66.7 0 33.3 0 16.7 0L0 0Z" fill="#380f30"></path><path d="M0 48L16.7 55.2C33.3 62.3 66.7 76.7 100 76.5C133.3 76.3 166.7 61.7 200 53.8C233.3 46 266.7 45 300 47.8C333.3 50.7 366.7 57.3 400 63.2C433.3 69 466.7 74 500 72.7C533.3 71.3 566.7 63.7 600 65.8C633.3 68 666.7 80 700 84.2C733.3 88.3 766.7 84.7 800 81.8C833.3 79 866.7 77 883.3 76L900 75L900 0L883.3 0C866.7 0 833.3 0 800 0C766.7 0 733.3 0 700 0C666.7 0 633.3 0 600 0C566.7 0 533.3 0 500 0C466.7 0 433.3 0 400 0C366.7 0 333.3 0 300 0C266.7 0 233.3 0 200 0C166.7 0 133.3 0 100 0C66.7 0 33.3 0 16.7 0L0 0Z" fill="#420e34"></path><path d="M0 33L16.7 37.7C33.3 42.3 66.7 51.7 100 56.2C133.3 60.7 166.7 60.3 200 61.7C233.3 63 266.7 66 300 63.3C333.3 60.7 366.7 52.3 400 48.5C433.3 44.7 466.7 45.3 500 45.7C533.3 46 566.7 46 600 48.7C633.3 51.3 666.7 56.7 700 61.7C733.3 66.7 766.7 71.3 800 66.8C833.3 62.3 866.7 48.7 883.3 41.8L900 35L900 0L883.3 0C866.7 0 833.3 0 800 0C766.7 0 733.3 0 700 0C666.7 0 633.3 0 600 0C566.7 0 533.3 0 500 0C466.7 0 433.3 0 400 0C366.7 0 333.3 0 300 0C266.7 0 233.3 0 200 0C166.7 0 133.3 0 100 0C66.7 0 33.3 0 16.7 0L0 0Z" fill="#4c0b38"></path><path d="M0 35L16.7 37.5C33.3 40 66.7 45 100 41.8C133.3 38.7 166.7 27.3 200 25.3C233.3 23.3 266.7 30.7 300 33.2C333.3 35.7 366.7 33.3 400 36C433.3 38.7 466.7 46.3 500 50.7C533.3 55 566.7 56 600 54.7C633.3 53.3 666.7 49.7 700 45.5C733.3 41.3 766.7 36.7 800 33.2C833.3 29.7 866.7 27.3 883.3 26.2L900 25L900 0L883.3 0C866.7 0 833.3 0 800 0C766.7 0 733.3 0 700 0C666.7 0 633.3 0 600 0C566.7 0 533.3 0 500 0C466.7 0 433.3 0 400 0C366.7 0 333.3 0 300 0C266.7 0 233.3 0 200 0C166.7 0 133.3 0 100 0C66.7 0 33.3 0 16.7 0L0 0Z" fill="#57073a"></path><path d="M0 30L16.7 28.8C33.3 27.7 66.7 25.3 100 22.5C133.3 19.7 166.7 16.3 200 15.5C233.3 14.7 266.7 16.3 300 19.8C333.3 23.3 366.7 28.7 400 26.8C433.3 25 466.7 16 500 15.5C533.3 15 566.7 23 600 26C633.3 29 666.7 27 700 27.2C733.3 27.3 766.7 29.7 800 28.8C833.3 28 866.7 24 883.3 22L900 20L900 0L883.3 0C866.7 0 833.3 0 800 0C766.7 0 733.3 0 700 0C666.7 0 633.3 0 600 0C566.7 0 533.3 0 500 0C466.7 0 433.3 0 400 0C366.7 0 333.3 0 300 0C266.7 0 233.3 0 200 0C166.7 0 133.3 0 100 0C66.7 0 33.3 0 16.7 0L0 0Z" fill="#62013c"></path></svg>